<svg width="14" height="17" viewBox="0 0 14 17" fill="none" xmlns="http://www.w3.org/2000/svg">
<path d="M9.05627 15.2647C8.47445 16.0882 7.74783 16.5 6.87555 16.5C6.00326 16.5 5.27664 16.0882 4.69483 15.2647M11.3111 14.0294H2.43996C2.18511 14.0295 1.9348 13.9657 1.71461 13.8446C1.49442 13.7234 1.31225 13.5493 1.18672 13.3399C1.06118 13.1305 0.996792 12.8934 1.00012 12.6528C1.00345 12.4122 1.07439 12.1768 1.20567 11.9705C2.06176 10.6235 2.51402 9.08208 2.51411 7.51113V6.6176C2.51411 5.74395 2.88171 4.90608 3.53605 4.28831C4.1904 3.67054 5.07788 3.32349 6.00326 3.32349H7.74783C8.67321 3.32349 9.56069 3.67054 10.215 4.28831C10.8694 4.90608 11.237 5.74395 11.237 6.6176V7.51113C11.237 9.0816 11.6888 10.6241 12.5454 11.9705C12.6767 12.1768 12.7476 12.4122 12.751 12.6528C12.7543 12.8934 12.6899 13.1305 12.5644 13.3399C12.4388 13.5493 12.2567 13.7234 12.0365 13.8446C11.8163 13.9657 11.566 14.0295 11.3111 14.0294V14.0294Z" stroke="white" stroke-linecap="round" stroke-linejoin="round"/>
<ellipse cx="11.0622" cy="3.32353" rx="2.93777" ry="2.82353" fill="#FFE600"/>
</svg>
